<svg width="50" height="50" viewBox="0 0 50 50" fill="none" xmlns="http://www.w3.org/2000/svg">
<g filter="url(#filter0_d_1_97)">
<rect x="4" width="42" height="42" rx="21" fill="#0F002B"/>
<path d="M25.075 28.7083C26.95 27.1875 29.8083 25.7458 29.8083 19.6V15.7667C28.1417 15.7667 26.6875 14.9833 25.0583 14.3167C23.5208 14.9542 21.8875 15.775 20.1208 15.7583V19.6208C20.1875 25.4792 22.9167 27.25 25.075 28.7083Z" stroke="white" stroke-width="0.8" stroke-linecap="round" stroke-linejoin="round"/>
<path d="M28.875 24.6417C30.4833 25.8917 31.3458 27.3292 32.2083 28.6917C30.6995 27.9845 29.351 26.9763 28.2458 25.7292M21.0667 24.5042C19.425 25.9208 18.2625 27.2542 17.7 28.6C19.1 27.7667 20.3417 27.0833 21.6292 25.5458M17.8042 13.4292L20.1375 15.7583M21.1 14.1958L19.7375 15.3583L18.575 16.7208M32.1542 13.4333L29.825 15.7667M31.3875 16.7292L30.225 15.3667L28.8625 14.2M25.075 16.95C24.1353 17.2826 23.1675 17.5294 22.1833 17.6875C21.9875 21.1333 23.2125 23.5208 25.075 25.35C26.9708 23.5 27.8125 21 27.7833 17.8208C26.8471 17.6472 25.937 17.3546 25.075 16.95Z" stroke="white" stroke-width="0.8" stroke-linecap="round" stroke-linejoin="round"/>
</g>
<defs>
<filter id="filter0_d_1_97" x="0" y="0" width="50" height="50" filterUnits="userSpaceOnUse" color-interpolation-filters="sRGB">
<feFlood flood-opacity="0" result="BackgroundImageFix"/>
<feColorMatrix in="SourceAlpha" type="matrix" values="0 0 0 0 0 0 0 0 0 0 0 0 0 0 0 0 0 0 127 0" result="hardAlpha"/>
<feOffset dy="4"/>
<feGaussianBlur stdDeviation="2"/>
<feComposite in2="hardAlpha" operator="out"/>
<feColorMatrix type="matrix" values="0 0 0 0 0 0 0 0 0 0 0 0 0 0 0 0 0 0 0.25 0"/>
<feBlend mode="normal" in2="BackgroundImageFix" result="effect1_dropShadow_1_97"/>
<feBlend mode="normal" in="SourceGraphic" in2="effect1_dropShadow_1_97" result="shape"/>
</filter>
</defs>
</svg>
