<svg width="44" height="44" viewBox="0 0 44 44" fill="none" xmlns="http://www.w3.org/2000/svg">
<g filter="url(#filter0_d_1_227)">
<rect x="2" y="2" width="40" height="40" rx="20" fill="#FFB653"/>
<path d="M22.105 32.7916C24.73 30.6625 28.7317 28.6441 28.7317 20.04V14.6733C26.3983 14.6733 24.3625 13.5766 22.0817 12.6433C19.9292 13.5358 17.6425 14.685 15.1692 14.6616V20.0691C15.2625 28.2708 19.0833 30.75 22.105 32.7916Z" stroke="#0F002B" stroke-width="0.8" stroke-linecap="round" stroke-linejoin="round"/>
<path d="M27.425 27.0983C29.6767 28.8483 30.8842 30.8608 32.0917 32.7683C29.9792 31.7782 28.0914 30.3668 26.5442 28.6208M16.4933 26.9058C14.195 28.8891 12.5675 30.7558 11.78 32.64C13.74 31.4733 15.4783 30.5166 17.2808 28.3641M11.9258 11.4008L15.1925 14.6617M16.54 12.4742L14.6325 14.1017L13.005 16.0092M32.0158 11.4067L28.755 14.6733M30.9425 16.0208L29.315 14.1133L27.4075 12.48M22.105 16.33C20.7895 16.7956 19.4345 17.1411 18.0567 17.3625C17.7825 22.1866 19.4975 25.5291 22.105 28.09C24.7592 25.5 25.9375 22 25.8967 17.5492C24.586 17.3061 23.3117 16.8964 22.105 16.33Z" stroke="#0F002B" stroke-width="0.8" stroke-linecap="round" stroke-linejoin="round"/>
</g>
<defs>
<filter id="filter0_d_1_227" x="0" y="0" width="44" height="44" filterUnits="userSpaceOnUse" color-interpolation-filters="sRGB">
<feFlood flood-opacity="0" result="BackgroundImageFix"/>
<feColorMatrix in="SourceAlpha" type="matrix" values="0 0 0 0 0 0 0 0 0 0 0 0 0 0 0 0 0 0 127 0" result="hardAlpha"/>
<feOffset/>
<feGaussianBlur stdDeviation="1"/>
<feComposite in2="hardAlpha" operator="out"/>
<feColorMatrix type="matrix" values="0 0 0 0 0 0 0 0 0 0 0 0 0 0 0 0 0 0 0.4 0"/>
<feBlend mode="normal" in2="BackgroundImageFix" result="effect1_dropShadow_1_227"/>
<feBlend mode="normal" in="SourceGraphic" in2="effect1_dropShadow_1_227" result="shape"/>
</filter>
</defs>
</svg>
